<?xml version="1.0" encoding="UTF-8" standalone="no"?>
<!DOCTYPE svg PUBLIC "-//W3C//DTD SVG 1.1//EN"
 "http://www.w3.org/Graphics/SVG/1.1/DTD/svg11.dtd">
<!-- Generated by graphviz version 2.38.0 (20140413.2041)
 -->
<!-- Title: Database Structure Pages: 1 -->
<svg width="1802pt" height="1286pt"
 viewBox="0.00 0.00 1802.29 1286.00" xmlns="http://www.w3.org/2000/svg" xmlns:xlink="http://www.w3.org/1999/xlink">
<g id="graph0" class="graph" transform="scale(1 1) rotate(0) translate(4 1282)">
<title>Database Structure</title>
<polygon fill="white" stroke="none" points="-4,4 -4,-1282 1798.29,-1282 1798.29,4 -4,4"/>
<text text-anchor="middle" x="897.143" y="-1262.8" font-family="Helvetica,sans-Serif" font-size="14.00">ER Diagram: configuration</text>
<!-- AudioDevices -->
<g id="node1" class="node"><title>AudioDevices</title>
<polygon fill="#dddddd" stroke="none" points="113.286,-1124 113.286,-1144 273.286,-1144 273.286,-1124 113.286,-1124"/>
<polygon fill="none" stroke="black" points="113.286,-1124 113.286,-1144 273.286,-1144 273.286,-1124 113.286,-1124"/>
<text text-anchor="start" x="153.241" y="-1129.8" font-family="Times,serif" font-size="14.00">AudioDevices</text>
<polygon fill="none" stroke="black" points="113.286,-1104 113.286,-1124 273.286,-1124 273.286,-1104 113.286,-1104"/>
<text text-anchor="start" x="140.528" y="-1110.8" font-family="Times,serif" font-size="14.00">audioDeviceID:</text>
<text text-anchor="start" x="229.935" y="-1110.8" font-family="Helvetica,sans-Serif" font-style="oblique" font-size="10.00">INT</text>
<polygon fill="none" stroke="black" points="113.286,-1084 113.286,-1104 273.286,-1104 273.286,-1084 113.286,-1084"/>
<text text-anchor="start" x="157.635" y="-1090.8" font-family="Times,serif" font-size="14.00">deviceID:</text>
<text text-anchor="start" x="212.828" y="-1090.8" font-family="Helvetica,sans-Serif" font-style="oblique" font-size="10.00">INT</text>
<polygon fill="none" stroke="black" points="113.286,-1064 113.286,-1084 273.286,-1084 273.286,-1064 113.286,-1064"/>
<text text-anchor="start" x="116.024" y="-1070.8" font-family="Times,serif" font-size="14.00">deviceRoleDefinitionID:</text>
<text text-anchor="start" x="254.439" y="-1070.8" font-family="Helvetica,sans-Serif" font-style="oblique" font-size="10.00">INT</text>
<polygon fill="none" stroke="black" points="113.286,-1044 113.286,-1064 273.286,-1064 273.286,-1044 113.286,-1044"/>
<text text-anchor="start" x="154.401" y="-1050.8" font-family="Times,serif" font-size="14.00">muted:</text>
<text text-anchor="start" x="193.284" y="-1050.8" font-family="Helvetica,sans-Serif" font-style="oblique" font-size="10.00">TINYINT</text>
<polygon fill="none" stroke="black" points="113.286,-1024 113.286,-1044 273.286,-1044 273.286,-1024 113.286,-1024"/>
<text text-anchor="start" x="162.29" y="-1030.8" font-family="Times,serif" font-size="14.00">volume:</text>
<text text-anchor="start" x="208.173" y="-1030.8" font-family="Helvetica,sans-Serif" font-style="oblique" font-size="10.00">INT</text>
</g>
<!-- DeviceRoleDefinition -->
<g id="node7" class="node"><title>DeviceRoleDefinition</title>
<polygon fill="#dddddd" stroke="none" points="653.286,-958 653.286,-978 813.286,-978 813.286,-958 653.286,-958"/>
<polygon fill="none" stroke="black" points="653.286,-958 653.286,-978 813.286,-978 813.286,-958 653.286,-958"/>
<text text-anchor="start" x="671.855" y="-963.8" font-family="Times,serif" font-size="14.00">DeviceRoleDefinition</text>
<polygon fill="none" stroke="black" points="653.286,-938 653.286,-958 813.286,-958 813.286,-938 653.286,-938"/>
<text text-anchor="start" x="656.024" y="-944.8" font-family="Times,serif" font-size="14.00">deviceRoleDefinitionID:</text>
<text text-anchor="start" x="794.439" y="-944.8" font-family="Helvetica,sans-Serif" font-style="oblique" font-size="10.00">INT</text>
<polygon fill="none" stroke="black" points="653.286,-918 653.286,-938 813.286,-938 813.286,-918 653.286,-918"/>
<text text-anchor="start" x="692.103" y="-924.8" font-family="Times,serif" font-size="14.00">name:</text>
<text text-anchor="start" x="726.31" y="-924.8" font-family="Helvetica,sans-Serif" font-style="oblique" font-size="10.00">VARCHAR</text>
<polygon fill="none" stroke="black" points="653.286,-898 653.286,-918 813.286,-918 813.286,-898 653.286,-898"/>
<text text-anchor="start" x="687.459" y="-904.8" font-family="Times,serif" font-size="14.00">description:</text>
<text text-anchor="start" x="753.556" y="-904.8" font-family="Helvetica,sans-Serif" font-style="oblique" font-size="10.00">TEXT</text>
</g>
<!-- AudioDevices&#45;&gt;DeviceRoleDefinition -->
<g id="edge2" class="edge"><title>AudioDevices:deviceRoleDefinitionID&#45;&gt;DeviceRoleDefinition:deviceroledefinitionid</title>
<path fill="none" stroke="#444444" stroke-dasharray="5,2" d="M274.286,-1074C447.915,-1074 474.209,-952.874 642.083,-948.142"/>
<polygon fill="#444444" stroke="#444444" points="652.335,-951.5 642.287,-948.14 652.237,-944.5 652.335,-951.5"/>
</g>
<!-- Devices -->
<g id="node8" class="node"><title>Devices</title>
<polygon fill="#dddddd" stroke="none" points="678.286,-852 678.286,-872 788.286,-872 788.286,-852 678.286,-852"/>
<polygon fill="none" stroke="black" points="678.286,-852 678.286,-872 788.286,-872 788.286,-852 678.286,-852"/>
<text text-anchor="start" x="710.741" y="-857.8" font-family="Times,serif" font-size="14.00">Devices</text>
<polygon fill="none" stroke="black" points="678.286,-832 678.286,-852 788.286,-852 788.286,-832 678.286,-832"/>
<text text-anchor="start" x="697.635" y="-838.8" font-family="Times,serif" font-size="14.00">deviceID:</text>
<text text-anchor="start" x="752.828" y="-838.8" font-family="Helvetica,sans-Serif" font-style="oblique" font-size="10.00">INT</text>
<polygon fill="none" stroke="black" points="678.286,-812 678.286,-832 788.286,-832 788.286,-812 678.286,-812"/>
<text text-anchor="start" x="692.103" y="-818.8" font-family="Times,serif" font-size="14.00">name:</text>
<text text-anchor="start" x="726.31" y="-818.8" font-family="Helvetica,sans-Serif" font-style="oblique" font-size="10.00">VARCHAR</text>
<polygon fill="none" stroke="black" points="678.286,-792 678.286,-812 788.286,-812 788.286,-792 678.286,-792"/>
<text text-anchor="start" x="686.268" y="-798.8" font-family="Times,serif" font-size="14.00">address:</text>
<text text-anchor="start" x="732.144" y="-798.8" font-family="Helvetica,sans-Serif" font-style="oblique" font-size="10.00">VARCHAR</text>
<polygon fill="none" stroke="black" points="678.286,-772 678.286,-792 788.286,-792 788.286,-772 678.286,-772"/>
<text text-anchor="start" x="697.508" y="-778.8" font-family="Times,serif" font-size="14.00">input:</text>
<text text-anchor="start" x="730.177" y="-778.8" font-family="Helvetica,sans-Serif" font-style="oblique" font-size="10.00">TINYINT</text>
<polygon fill="none" stroke="black" points="678.286,-752 678.286,-772 788.286,-772 788.286,-752 678.286,-752"/>
<text text-anchor="start" x="694.008" y="-758.8" font-family="Times,serif" font-size="14.00">output:</text>
<text text-anchor="start" x="733.677" y="-758.8" font-family="Helvetica,sans-Serif" font-style="oblique" font-size="10.00">TINYINT</text>
<polygon fill="none" stroke="black" points="678.286,-732 678.286,-752 788.286,-752 788.286,-732 678.286,-732"/>
<text text-anchor="start" x="692.566" y="-738.8" font-family="Times,serif" font-size="14.00">buildingID:</text>
<text text-anchor="start" x="757.897" y="-738.8" font-family="Helvetica,sans-Serif" font-style="oblique" font-size="10.00">INT</text>
<polygon fill="none" stroke="black" points="678.286,-712 678.286,-732 788.286,-732 788.286,-712 678.286,-712"/>
<text text-anchor="start" x="701.125" y="-718.8" font-family="Times,serif" font-size="14.00">roomID:</text>
<text text-anchor="start" x="749.338" y="-718.8" font-family="Helvetica,sans-Serif" font-style="oblique" font-size="10.00">INT</text>
<polygon fill="none" stroke="black" points="678.286,-692 678.286,-712 788.286,-712 788.286,-692 678.286,-692"/>
<text text-anchor="start" x="703.849" y="-698.8" font-family="Times,serif" font-size="14.00">typeID:</text>
<text text-anchor="start" x="746.614" y="-698.8" font-family="Helvetica,sans-Serif" font-style="oblique" font-size="10.00">INT</text>
<polygon fill="none" stroke="black" points="678.286,-672 678.286,-692 788.286,-692 788.286,-672 678.286,-672"/>
<text text-anchor="start" x="698.407" y="-678.8" font-family="Times,serif" font-size="14.00">powerID:</text>
<text text-anchor="start" x="752.056" y="-678.8" font-family="Helvetica,sans-Serif" font-style="oblique" font-size="10.00">INT</text>
<polygon fill="none" stroke="black" points="678.286,-652 678.286,-672 788.286,-672 788.286,-652 678.286,-652"/>
<text text-anchor="start" x="680.791" y="-658.8" font-family="Times,serif" font-size="14.00">responding:</text>
<text text-anchor="start" x="746.894" y="-658.8" font-family="Helvetica,sans-Serif" font-style="oblique" font-size="10.00">TINYINT</text>
</g>
<!-- AudioDevices&#45;&gt;Devices -->
<g id="edge1" class="edge"><title>AudioDevices:deviceID&#45;&gt;Devices:deviceid</title>
<path fill="none" stroke="#444444" stroke-dasharray="5,2" d="M274.286,-1094C482.128,-1094 466.608,-850.056 667.252,-842.194"/>
<polygon fill="#444444" stroke="#444444" points="677.353,-845.499 667.288,-842.194 677.218,-838.501 677.353,-845.499"/>
</g>
<!-- Buildings -->
<g id="node2" class="node"><title>Buildings</title>
<polygon fill="#dddddd" stroke="none" points="1613.29,-833 1613.29,-853 1732.29,-853 1732.29,-833 1613.29,-833"/>
<polygon fill="none" stroke="black" points="1613.29,-833 1613.29,-853 1732.29,-853 1732.29,-833 1613.29,-833"/>
<text text-anchor="start" x="1645.56" y="-838.8" font-family="Times,serif" font-size="14.00">Buildings</text>
<polygon fill="none" stroke="black" points="1613.29,-813 1613.29,-833 1732.29,-833 1732.29,-813 1613.29,-813"/>
<text text-anchor="start" x="1632.07" y="-819.8" font-family="Times,serif" font-size="14.00">buildingID:</text>
<text text-anchor="start" x="1697.4" y="-819.8" font-family="Helvetica,sans-Serif" font-style="oblique" font-size="10.00">INT</text>
<polygon fill="none" stroke="black" points="1613.29,-793 1613.29,-813 1732.29,-813 1732.29,-793 1613.29,-793"/>
<text text-anchor="start" x="1642.9" y="-799.8" font-family="Times,serif" font-size="14.00">name:</text>
<text text-anchor="start" x="1677.11" y="-799.8" font-family="Helvetica,sans-Serif" font-style="oblique" font-size="10.00">TEXT</text>
<polygon fill="none" stroke="black" points="1613.29,-773 1613.29,-793 1732.29,-793 1732.29,-773 1613.29,-773"/>
<text text-anchor="start" x="1616.05" y="-779.8" font-family="Times,serif" font-size="14.00">shortName:</text>
<text text-anchor="start" x="1681.36" y="-779.8" font-family="Helvetica,sans-Serif" font-style="oblique" font-size="10.00">VARCHAR</text>
<polygon fill="none" stroke="black" points="1613.29,-753 1613.29,-773 1732.29,-773 1732.29,-753 1613.29,-753"/>
<text text-anchor="start" x="1626.96" y="-759.8" font-family="Times,serif" font-size="14.00">description:</text>
<text text-anchor="start" x="1693.06" y="-759.8" font-family="Helvetica,sans-Serif" font-style="oblique" font-size="10.00">TEXT</text>
</g>
<!-- Commands -->
<g id="node3" class="node"><title>Commands</title>
<polygon fill="#dddddd" stroke="none" points="685.286,-336 685.286,-356 782.286,-356 782.286,-336 685.286,-336"/>
<polygon fill="none" stroke="black" points="685.286,-336 685.286,-356 782.286,-356 782.286,-336 685.286,-336"/>
<text text-anchor="start" x="701.896" y="-341.8" font-family="Times,serif" font-size="14.00">Commands</text>
<polygon fill="none" stroke="black" points="685.286,-316 685.286,-336 782.286,-336 782.286,-316 685.286,-316"/>
<text text-anchor="start" x="688.797" y="-322.8" font-family="Times,serif" font-size="14.00">commandID:</text>
<text text-anchor="start" x="762.666" y="-322.8" font-family="Helvetica,sans-Serif" font-style="oblique" font-size="10.00">INT</text>
<polygon fill="none" stroke="black" points="685.286,-296 685.286,-316 782.286,-316 782.286,-296 685.286,-296"/>
<text text-anchor="start" x="692.603" y="-302.8" font-family="Times,serif" font-size="14.00">name:</text>
<text text-anchor="start" x="726.81" y="-302.8" font-family="Helvetica,sans-Serif" font-style="oblique" font-size="10.00">VARCHAR</text>
<polygon fill="none" stroke="black" points="685.286,-276 685.286,-296 782.286,-296 782.286,-276 685.286,-276"/>
<text text-anchor="start" x="687.959" y="-282.8" font-family="Times,serif" font-size="14.00">description:</text>
<text text-anchor="start" x="754.056" y="-282.8" font-family="Helvetica,sans-Serif" font-style="oblique" font-size="10.00">TEXT</text>
<polygon fill="none" stroke="black" points="685.286,-256 685.286,-276 782.286,-276 782.286,-256 685.286,-256"/>
<text text-anchor="start" x="702.397" y="-262.8" font-family="Times,serif" font-size="14.00">Priority:</text>
<text text-anchor="start" x="749.066" y="-262.8" font-family="Helvetica,sans-Serif" font-style="oblique" font-size="10.00">INT</text>
</g>
<!-- DeviceCommands -->
<g id="node4" class="node"><title>DeviceCommands</title>
<polygon fill="#dddddd" stroke="none" points="126.286,-417 126.286,-437 261.286,-437 261.286,-417 126.286,-417"/>
<polygon fill="none" stroke="black" points="126.286,-417 126.286,-437 261.286,-437 261.286,-417 126.286,-417"/>
<text text-anchor="start" x="142.075" y="-422.8" font-family="Times,serif" font-size="14.00">DeviceCommands</text>
<polygon fill="none" stroke="black" points="126.286,-397 126.286,-417 261.286,-417 261.286,-397 126.286,-397"/>
<text text-anchor="start" x="128.969" y="-403.8" font-family="Times,serif" font-size="14.00">deviceCommandID:</text>
<text text-anchor="start" x="242.494" y="-403.8" font-family="Helvetica,sans-Serif" font-style="oblique" font-size="10.00">INT</text>
<polygon fill="none" stroke="black" points="126.286,-377 126.286,-397 261.286,-397 261.286,-377 126.286,-377"/>
<text text-anchor="start" x="158.135" y="-383.8" font-family="Times,serif" font-size="14.00">deviceID:</text>
<text text-anchor="start" x="213.328" y="-383.8" font-family="Helvetica,sans-Serif" font-style="oblique" font-size="10.00">INT</text>
<polygon fill="none" stroke="black" points="126.286,-357 126.286,-377 261.286,-377 261.286,-357 126.286,-357"/>
<text text-anchor="start" x="148.797" y="-363.8" font-family="Times,serif" font-size="14.00">commandID:</text>
<text text-anchor="start" x="222.666" y="-363.8" font-family="Helvetica,sans-Serif" font-style="oblique" font-size="10.00">INT</text>
<polygon fill="none" stroke="black" points="126.286,-337 126.286,-357 261.286,-357 261.286,-337 126.286,-337"/>
<text text-anchor="start" x="140.252" y="-343.8" font-family="Times,serif" font-size="14.00">microserviceID:</text>
<text text-anchor="start" x="231.211" y="-343.8" font-family="Helvetica,sans-Serif" font-style="oblique" font-size="10.00">INT</text>
<polygon fill="none" stroke="black" points="126.286,-317 126.286,-337 261.286,-337 261.286,-317 126.286,-317"/>
<text text-anchor="start" x="151.904" y="-323.8" font-family="Times,serif" font-size="14.00">endpointID:</text>
<text text-anchor="start" x="219.559" y="-323.8" font-family="Helvetica,sans-Serif" font-style="oblique" font-size="10.00">INT</text>
<polygon fill="none" stroke="black" points="126.286,-297 126.286,-317 261.286,-317 261.286,-297 126.286,-297"/>
<text text-anchor="start" x="150.632" y="-303.8" font-family="Times,serif" font-size="14.00">enabled:</text>
<text text-anchor="start" x="198.053" y="-303.8" font-family="Helvetica,sans-Serif" font-style="oblique" font-size="10.00">TINYINT</text>
</g>
<!-- DeviceCommands&#45;&gt;Commands -->
<g id="edge4" class="edge"><title>DeviceCommands:commandID&#45;&gt;Commands:commandid</title>
<path fill="none" stroke="#444444" stroke-dasharray="5,2" d="M262.286,-367C447.32,-367 494.17,-327.468 674.211,-326.04"/>
<polygon fill="#444444" stroke="#444444" points="684.3,-329.5 674.286,-326.039 684.272,-322.5 684.3,-329.5"/>
</g>
<!-- DeviceCommands&#45;&gt;Devices -->
<g id="edge3" class="edge"><title>DeviceCommands:deviceID&#45;&gt;Devices:deviceid</title>
<path fill="none" stroke="#444444" stroke-dasharray="5,2" d="M262.286,-387C532.514,-387 406.879,-830.521 667.056,-841.782"/>
<polygon fill="#444444" stroke="#444444" points="677.211,-845.499 667.288,-841.787 677.36,-838.501 677.211,-845.499"/>
</g>
<!-- Endpoints -->
<g id="node11" class="node"><title>Endpoints</title>
<polygon fill="#dddddd" stroke="none" points="685.286,-210 685.286,-230 782.286,-230 782.286,-210 685.286,-210"/>
<polygon fill="none" stroke="black" points="685.286,-210 685.286,-230 782.286,-230 782.286,-210 685.286,-210"/>
<text text-anchor="start" x="705.396" y="-215.8" font-family="Times,serif" font-size="14.00">Endpoints</text>
<polygon fill="none" stroke="black" points="685.286,-190 685.286,-210 782.286,-210 782.286,-190 685.286,-190"/>
<text text-anchor="start" x="691.904" y="-196.8" font-family="Times,serif" font-size="14.00">endpointID:</text>
<text text-anchor="start" x="759.559" y="-196.8" font-family="Helvetica,sans-Serif" font-style="oblique" font-size="10.00">INT</text>
<polygon fill="none" stroke="black" points="685.286,-170 685.286,-190 782.286,-190 782.286,-170 685.286,-170"/>
<text text-anchor="start" x="692.603" y="-176.8" font-family="Times,serif" font-size="14.00">name:</text>
<text text-anchor="start" x="726.81" y="-176.8" font-family="Helvetica,sans-Serif" font-style="oblique" font-size="10.00">VARCHAR</text>
<polygon fill="none" stroke="black" points="685.286,-150 685.286,-170 782.286,-170 782.286,-150 685.286,-150"/>
<text text-anchor="start" x="707.011" y="-156.8" font-family="Times,serif" font-size="14.00">path:</text>
<text text-anchor="start" x="735.004" y="-156.8" font-family="Helvetica,sans-Serif" font-style="oblique" font-size="10.00">TEXT</text>
<polygon fill="none" stroke="black" points="685.286,-130 685.286,-150 782.286,-150 782.286,-130 685.286,-130"/>
<text text-anchor="start" x="687.959" y="-136.8" font-family="Times,serif" font-size="14.00">description:</text>
<text text-anchor="start" x="754.056" y="-136.8" font-family="Helvetica,sans-Serif" font-style="oblique" font-size="10.00">TEXT</text>
</g>
<!-- DeviceCommands&#45;&gt;Endpoints -->
<g id="edge5" class="edge"><title>DeviceCommands:endpointID&#45;&gt;Endpoints:endpointid</title>
<path fill="none" stroke="#444444" stroke-dasharray="5,2" d="M262.286,-327C454.708,-327 487.305,-204.426 674.109,-200.116"/>
<polygon fill="#444444" stroke="#444444" points="684.326,-203.5 674.286,-200.114 684.246,-196.5 684.326,-203.5"/>
</g>
<!-- Microservices -->
<g id="node12" class="node"><title>Microservices</title>
<polygon fill="#dddddd" stroke="none" points="677.286,-462 677.286,-482 790.286,-482 790.286,-462 677.286,-462"/>
<polygon fill="none" stroke="black" points="677.286,-462 677.286,-482 790.286,-482 790.286,-462 677.286,-462"/>
<text text-anchor="start" x="694.134" y="-467.8" font-family="Times,serif" font-size="14.00">Microservices</text>
<polygon fill="none" stroke="black" points="677.286,-442 677.286,-462 790.286,-462 790.286,-442 677.286,-442"/>
<text text-anchor="start" x="680.252" y="-448.8" font-family="Times,serif" font-size="14.00">microserviceID:</text>
<text text-anchor="start" x="771.211" y="-448.8" font-family="Helvetica,sans-Serif" font-style="oblique" font-size="10.00">INT</text>
<polygon fill="none" stroke="black" points="677.286,-422 677.286,-442 790.286,-442 790.286,-422 677.286,-422"/>
<text text-anchor="start" x="692.603" y="-428.8" font-family="Times,serif" font-size="14.00">name:</text>
<text text-anchor="start" x="726.81" y="-428.8" font-family="Helvetica,sans-Serif" font-style="oblique" font-size="10.00">VARCHAR</text>
<polygon fill="none" stroke="black" points="677.286,-402 677.286,-422 790.286,-422 790.286,-402 677.286,-402"/>
<text text-anchor="start" x="698.069" y="-408.8" font-family="Times,serif" font-size="14.00">address:</text>
<text text-anchor="start" x="743.945" y="-408.8" font-family="Helvetica,sans-Serif" font-style="oblique" font-size="10.00">TEXT</text>
<polygon fill="none" stroke="black" points="677.286,-382 677.286,-402 790.286,-402 790.286,-382 677.286,-382"/>
<text text-anchor="start" x="687.959" y="-388.8" font-family="Times,serif" font-size="14.00">description:</text>
<text text-anchor="start" x="754.056" y="-388.8" font-family="Helvetica,sans-Serif" font-style="oblique" font-size="10.00">TEXT</text>
</g>
<!-- DeviceCommands&#45;&gt;Microservices -->
<g id="edge6" class="edge"><title>DeviceCommands:microserviceID&#45;&gt;Microservices:microserviceid</title>
<path fill="none" stroke="#444444" stroke-dasharray="5,2" d="M262.286,-347C448.682,-347 485.168,-448.24 666.148,-451.898"/>
<polygon fill="#444444" stroke="#444444" points="676.251,-455.5 666.286,-451.9 676.321,-448.5 676.251,-455.5"/>
</g>
<!-- DevicePowerStates -->
<g id="node5" class="node"><title>DevicePowerStates</title>
<polygon fill="#dddddd" stroke="none" points="123.286,-592 123.286,-612 264.286,-612 264.286,-592 123.286,-592"/>
<polygon fill="none" stroke="black" points="123.286,-592 123.286,-612 264.286,-612 264.286,-592 123.286,-592"/>
<text text-anchor="start" x="139.358" y="-597.8" font-family="Times,serif" font-size="14.00">DevicePowerStates</text>
<polygon fill="none" stroke="black" points="123.286,-572 123.286,-592 264.286,-592 264.286,-572 123.286,-572"/>
<text text-anchor="start" x="126.252" y="-578.8" font-family="Times,serif" font-size="14.00">devicePowerStateID:</text>
<text text-anchor="start" x="245.211" y="-578.8" font-family="Helvetica,sans-Serif" font-style="oblique" font-size="10.00">INT</text>
<polygon fill="none" stroke="black" points="123.286,-552 123.286,-572 264.286,-572 264.286,-552 123.286,-552"/>
<text text-anchor="start" x="158.135" y="-558.8" font-family="Times,serif" font-size="14.00">deviceID:</text>
<text text-anchor="start" x="213.328" y="-558.8" font-family="Helvetica,sans-Serif" font-style="oblique" font-size="10.00">INT</text>
<polygon fill="none" stroke="black" points="123.286,-532 123.286,-552 264.286,-552 264.286,-532 123.286,-532"/>
<text text-anchor="start" x="144.911" y="-538.8" font-family="Times,serif" font-size="14.00">powerStateID:</text>
<text text-anchor="start" x="226.552" y="-538.8" font-family="Helvetica,sans-Serif" font-style="oblique" font-size="10.00">INT</text>
</g>
<!-- DevicePowerStates&#45;&gt;Devices -->
<g id="edge7" class="edge"><title>DevicePowerStates:deviceID&#45;&gt;Devices:deviceid</title>
<path fill="none" stroke="#444444" stroke-dasharray="5,2" d="M265.286,-562C483.222,-562 456.791,-833.318 667.091,-841.797"/>
<polygon fill="#444444" stroke="#444444" points="677.216,-845.499 667.288,-841.801 677.355,-838.501 677.216,-845.499"/>
</g>
<!-- PowerStates -->
<g id="node15" class="node"><title>PowerStates</title>
<polygon fill="#dddddd" stroke="none" points="1183.29,-554 1183.29,-574 1286.29,-574 1286.29,-554 1183.29,-554"/>
<polygon fill="none" stroke="black" points="1183.29,-554 1183.29,-574 1286.29,-574 1286.29,-554 1183.29,-554"/>
<text text-anchor="start" x="1200.18" y="-559.8" font-family="Times,serif" font-size="14.00">PowerStates</text>
<polygon fill="none" stroke="black" points="1183.29,-534 1183.29,-554 1286.29,-554 1286.29,-534 1183.29,-534"/>
<text text-anchor="start" x="1185.91" y="-540.8" font-family="Times,serif" font-size="14.00">powerStateID:</text>
<text text-anchor="start" x="1267.55" y="-540.8" font-family="Helvetica,sans-Serif" font-style="oblique" font-size="10.00">INT</text>
<polygon fill="none" stroke="black" points="1183.29,-514 1183.29,-534 1286.29,-534 1286.29,-514 1183.29,-514"/>
<text text-anchor="start" x="1193.6" y="-520.8" font-family="Times,serif" font-size="14.00">name:</text>
<text text-anchor="start" x="1227.81" y="-520.8" font-family="Helvetica,sans-Serif" font-style="oblique" font-size="10.00">VARCHAR</text>
<polygon fill="none" stroke="black" points="1183.29,-494 1183.29,-514 1286.29,-514 1286.29,-494 1183.29,-494"/>
<text text-anchor="start" x="1188.96" y="-500.8" font-family="Times,serif" font-size="14.00">description:</text>
<text text-anchor="start" x="1255.06" y="-500.8" font-family="Helvetica,sans-Serif" font-style="oblique" font-size="10.00">TEXT</text>
</g>
<!-- DevicePowerStates&#45;&gt;PowerStates -->
<g id="edge8" class="edge"><title>DevicePowerStates:powerStateID&#45;&gt;PowerStates:powerstateid</title>
<path fill="none" stroke="#444444" stroke-dasharray="5,2" d="M265.286,-542C428.002,-542 468.582,-535 631.286,-533 721.946,-531.885 744.63,-531.563 835.286,-533 986.101,-535.39 1026.2,-543.619 1172.06,-543.987"/>
<polygon fill="#444444" stroke="#444444" points="1182.28,-547.5 1172.29,-543.987 1182.29,-540.5 1182.28,-547.5"/>
</g>
<!-- DeviceRole -->
<g id="node6" class="node"><title>DeviceRole</title>
<polygon fill="#dddddd" stroke="none" points="113.286,-978 113.286,-998 273.286,-998 273.286,-978 113.286,-978"/>
<polygon fill="none" stroke="black" points="113.286,-978 113.286,-998 273.286,-998 273.286,-978 113.286,-978"/>
<text text-anchor="start" x="160.244" y="-983.8" font-family="Times,serif" font-size="14.00">DeviceRole</text>
<polygon fill="none" stroke="black" points="113.286,-958 113.286,-978 273.286,-978 273.286,-958 113.286,-958"/>
<text text-anchor="start" x="144.414" y="-964.8" font-family="Times,serif" font-size="14.00">deviceRoleID:</text>
<text text-anchor="start" x="226.049" y="-964.8" font-family="Helvetica,sans-Serif" font-style="oblique" font-size="10.00">INT</text>
<polygon fill="none" stroke="black" points="113.286,-938 113.286,-958 273.286,-958 273.286,-938 113.286,-938"/>
<text text-anchor="start" x="157.635" y="-944.8" font-family="Times,serif" font-size="14.00">deviceID:</text>
<text text-anchor="start" x="212.828" y="-944.8" font-family="Helvetica,sans-Serif" font-style="oblique" font-size="10.00">INT</text>
<polygon fill="none" stroke="black" points="113.286,-918 113.286,-938 273.286,-938 273.286,-918 113.286,-918"/>
<text text-anchor="start" x="116.024" y="-924.8" font-family="Times,serif" font-size="14.00">deviceRoleDefinitionID:</text>
<text text-anchor="start" x="254.439" y="-924.8" font-family="Helvetica,sans-Serif" font-style="oblique" font-size="10.00">INT</text>
</g>
<!-- DeviceRole&#45;&gt;DeviceRoleDefinition -->
<g id="edge10" class="edge"><title>DeviceRole:deviceRoleDefinitionID&#45;&gt;DeviceRoleDefinition:deviceroledefinitionid</title>
<path fill="none" stroke="#444444" stroke-dasharray="5,2" d="M274.286,-928C439.071,-928 482.294,-947.188 642.093,-947.975"/>
<polygon fill="#444444" stroke="#444444" points="652.277,-951.5 642.286,-947.975 652.294,-944.5 652.277,-951.5"/>
</g>
<!-- DeviceRole&#45;&gt;Devices -->
<g id="edge9" class="edge"><title>DeviceRole:deviceID&#45;&gt;Devices:deviceid</title>
<path fill="none" stroke="#444444" stroke-dasharray="5,2" d="M274.286,-948C456.053,-948 490.82,-845.897 667.132,-842.108"/>
<polygon fill="#444444" stroke="#444444" points="677.323,-845.5 667.286,-842.107 677.248,-838.5 677.323,-845.5"/>
</g>
<!-- Devices&#45;&gt;Buildings -->
<g id="edge11" class="edge"><title>Devices:buildingID&#45;&gt;Buildings:buildingid</title>
<path fill="none" stroke="#444444" stroke-dasharray="5,2" d="M789.286,-742C1024.99,-742 1085.34,-732.273 1319.29,-761 1447.92,-776.795 1477.64,-820.607 1601.97,-822.906"/>
<polygon fill="#444444" stroke="#444444" points="1612.25,-826.5 1602.29,-822.909 1612.32,-819.5 1612.25,-826.5"/>
</g>
<!-- DeviceTypes -->
<g id="node9" class="node"><title>DeviceTypes</title>
<polygon fill="#dddddd" stroke="none" points="1182.29,-690 1182.29,-710 1287.29,-710 1287.29,-690 1182.29,-690"/>
<polygon fill="none" stroke="black" points="1182.29,-690 1182.29,-710 1287.29,-710 1287.29,-690 1182.29,-690"/>
<text text-anchor="start" x="1198.35" y="-695.8" font-family="Times,serif" font-size="14.00">DeviceTypes</text>
<polygon fill="none" stroke="black" points="1182.29,-670 1182.29,-690 1287.29,-690 1287.29,-670 1182.29,-670"/>
<text text-anchor="start" x="1185.24" y="-676.8" font-family="Times,serif" font-size="14.00">deviceTypeID:</text>
<text text-anchor="start" x="1268.22" y="-676.8" font-family="Helvetica,sans-Serif" font-style="oblique" font-size="10.00">INT</text>
<polygon fill="none" stroke="black" points="1182.29,-650 1182.29,-670 1287.29,-670 1287.29,-650 1182.29,-650"/>
<text text-anchor="start" x="1193.6" y="-656.8" font-family="Times,serif" font-size="14.00">name:</text>
<text text-anchor="start" x="1227.81" y="-656.8" font-family="Helvetica,sans-Serif" font-style="oblique" font-size="10.00">VARCHAR</text>
<polygon fill="none" stroke="black" points="1182.29,-630 1182.29,-650 1287.29,-650 1287.29,-630 1182.29,-630"/>
<text text-anchor="start" x="1188.96" y="-636.8" font-family="Times,serif" font-size="14.00">description:</text>
<text text-anchor="start" x="1255.06" y="-636.8" font-family="Helvetica,sans-Serif" font-style="oblique" font-size="10.00">TEXT</text>
</g>
<!-- Devices&#45;&gt;DeviceTypes -->
<g id="edge12" class="edge"><title>Devices:typeID&#45;&gt;DeviceTypes:devicetypeid</title>
<path fill="none" stroke="#444444" stroke-dasharray="5,2" d="M789.286,-702C960.374,-702 1005.06,-680.851 1171.21,-680.025"/>
<polygon fill="#444444" stroke="#444444" points="1181.29,-683.5 1171.29,-680.025 1181.28,-676.5 1181.29,-683.5"/>
</g>
<!-- Devices&#45;&gt;PowerStates -->
<g id="edge13" class="edge"><title>Devices:powerID&#45;&gt;PowerStates:powerstateid</title>
<path fill="none" stroke="#444444" stroke-dasharray="5,2" d="M789.286,-682C970.973,-682 996.263,-549.074 1172.15,-544.141"/>
<polygon fill="#444444" stroke="#444444" points="1182.33,-547.5 1172.29,-544.139 1182.24,-540.5 1182.33,-547.5"/>
</g>
<!-- Rooms -->
<g id="node18" class="node"><title>Rooms</title>
<polygon fill="#dddddd" stroke="none" points="1157.29,-954 1157.29,-974 1311.29,-974 1311.29,-954 1157.29,-954"/>
<polygon fill="none" stroke="black" points="1157.29,-954 1157.29,-974 1311.29,-974 1311.29,-954 1157.29,-954"/>
<text text-anchor="start" x="1214.45" y="-959.8" font-family="Times,serif" font-size="14.00">Rooms</text>
<polygon fill="none" stroke="black" points="1157.29,-934 1157.29,-954 1311.29,-954 1311.29,-934 1157.29,-934"/>
<text text-anchor="start" x="1202.12" y="-940.8" font-family="Times,serif" font-size="14.00">roomID:</text>
<text text-anchor="start" x="1250.34" y="-940.8" font-family="Helvetica,sans-Serif" font-style="oblique" font-size="10.00">INT</text>
<polygon fill="none" stroke="black" points="1157.29,-914 1157.29,-934 1311.29,-934 1311.29,-914 1157.29,-914"/>
<text text-anchor="start" x="1193.1" y="-920.8" font-family="Times,serif" font-size="14.00">name:</text>
<text text-anchor="start" x="1227.31" y="-920.8" font-family="Helvetica,sans-Serif" font-style="oblique" font-size="10.00">VARCHAR</text>
<polygon fill="none" stroke="black" points="1157.29,-894 1157.29,-914 1311.29,-914 1311.29,-894 1157.29,-894"/>
<text text-anchor="start" x="1193.57" y="-900.8" font-family="Times,serif" font-size="14.00">buildingID:</text>
<text text-anchor="start" x="1258.9" y="-900.8" font-family="Helvetica,sans-Serif" font-style="oblique" font-size="10.00">INT</text>
<polygon fill="none" stroke="black" points="1157.29,-874 1157.29,-894 1311.29,-894 1311.29,-874 1157.29,-874"/>
<text text-anchor="start" x="1177.16" y="-880.8" font-family="Times,serif" font-size="14.00">description:</text>
<text text-anchor="start" x="1243.25" y="-880.8" font-family="Helvetica,sans-Serif" font-style="oblique" font-size="10.00">VARCHAR</text>
<polygon fill="none" stroke="black" points="1157.29,-854 1157.29,-874 1311.29,-874 1311.29,-854 1157.29,-854"/>
<text text-anchor="start" x="1160.94" y="-860.8" font-family="Times,serif" font-size="14.00">currentVideoOutputID:</text>
<text text-anchor="start" x="1291.52" y="-860.8" font-family="Helvetica,sans-Serif" font-style="oblique" font-size="10.00">INT</text>
<polygon fill="none" stroke="black" points="1157.29,-834 1157.29,-854 1311.29,-854 1311.29,-834 1157.29,-834"/>
<text text-anchor="start" x="1160.13" y="-840.8" font-family="Times,serif" font-size="14.00">currentAudioOutputID:</text>
<text text-anchor="start" x="1292.33" y="-840.8" font-family="Helvetica,sans-Serif" font-style="oblique" font-size="10.00">INT</text>
<polygon fill="none" stroke="black" points="1157.29,-814 1157.29,-834 1311.29,-834 1311.29,-814 1157.29,-814"/>
<text text-anchor="start" x="1165.61" y="-820.8" font-family="Times,serif" font-size="14.00">currentVideoInputID:</text>
<text text-anchor="start" x="1286.85" y="-820.8" font-family="Helvetica,sans-Serif" font-style="oblique" font-size="10.00">INT</text>
<polygon fill="none" stroke="black" points="1157.29,-794 1157.29,-814 1311.29,-814 1311.29,-794 1157.29,-794"/>
<text text-anchor="start" x="1164.8" y="-800.8" font-family="Times,serif" font-size="14.00">currentAudioInputID:</text>
<text text-anchor="start" x="1287.66" y="-800.8" font-family="Helvetica,sans-Serif" font-style="oblique" font-size="10.00">INT</text>
<polygon fill="none" stroke="black" points="1157.29,-774 1157.29,-794 1311.29,-794 1311.29,-774 1157.29,-774"/>
<text text-anchor="start" x="1179.57" y="-780.8" font-family="Times,serif" font-size="14.00">configurationID:</text>
<text text-anchor="start" x="1272.89" y="-780.8" font-family="Helvetica,sans-Serif" font-style="oblique" font-size="10.00">INT</text>
</g>
<!-- Devices&#45;&gt;Rooms -->
<g id="edge14" class="edge"><title>Devices:roomID&#45;&gt;Rooms:roomid</title>
<path fill="none" stroke="#444444" stroke-dasharray="5,2" d="M789.286,-722C976.473,-722 966.103,-936.051 1146.15,-943.785"/>
<polygon fill="#444444" stroke="#444444" points="1156.21,-947.499 1146.29,-943.788 1156.36,-940.501 1156.21,-947.499"/>
</g>
<!-- Displays -->
<g id="node10" class="node"><title>Displays</title>
<polygon fill="#dddddd" stroke="none" points="113.286,-872 113.286,-892 273.286,-892 273.286,-872 113.286,-872"/>
<polygon fill="none" stroke="black" points="113.286,-872 113.286,-892 273.286,-892 273.286,-872 113.286,-872"/>
<text text-anchor="start" x="168.786" y="-877.8" font-family="Times,serif" font-size="14.00">Displays</text>
<polygon fill="none" stroke="black" points="113.286,-852 113.286,-872 273.286,-872 273.286,-852 113.286,-852"/>
<text text-anchor="start" x="155.68" y="-858.8" font-family="Times,serif" font-size="14.00">displayID:</text>
<text text-anchor="start" x="214.783" y="-858.8" font-family="Helvetica,sans-Serif" font-style="oblique" font-size="10.00">INT</text>
<polygon fill="none" stroke="black" points="113.286,-832 113.286,-852 273.286,-852 273.286,-832 113.286,-832"/>
<text text-anchor="start" x="157.635" y="-838.8" font-family="Times,serif" font-size="14.00">deviceID:</text>
<text text-anchor="start" x="212.828" y="-838.8" font-family="Helvetica,sans-Serif" font-style="oblique" font-size="10.00">INT</text>
<polygon fill="none" stroke="black" points="113.286,-812 113.286,-832 273.286,-832 273.286,-812 113.286,-812"/>
<text text-anchor="start" x="116.024" y="-818.8" font-family="Times,serif" font-size="14.00">deviceRoleDefinitionID:</text>
<text text-anchor="start" x="254.439" y="-818.8" font-family="Helvetica,sans-Serif" font-style="oblique" font-size="10.00">INT</text>
<polygon fill="none" stroke="black" points="113.286,-792 113.286,-812 273.286,-812 273.286,-792 113.286,-792"/>
<text text-anchor="start" x="149.739" y="-798.8" font-family="Times,serif" font-size="14.00">blanked:</text>
<text text-anchor="start" x="197.946" y="-798.8" font-family="Helvetica,sans-Serif" font-style="oblique" font-size="10.00">TINYINT</text>
</g>
<!-- Displays&#45;&gt;DeviceRoleDefinition -->
<g id="edge16" class="edge"><title>Displays:deviceRoleDefinitionID&#45;&gt;DeviceRoleDefinition:deviceroledefinitionid</title>
<path fill="none" stroke="#444444" stroke-dasharray="5,2" d="M274.286,-822C447.915,-822 474.209,-943.126 642.083,-947.858"/>
<polygon fill="#444444" stroke="#444444" points="652.237,-951.5 642.287,-947.86 652.335,-944.5 652.237,-951.5"/>
</g>
<!-- Displays&#45;&gt;Devices -->
<g id="edge15" class="edge"><title>Displays:deviceID&#45;&gt;Devices:deviceid</title>
<path fill="none" stroke="#444444" stroke-dasharray="5,2" d="M274.286,-842C449.986,-842 496.42,-842 667.198,-842"/>
<polygon fill="#444444" stroke="#444444" points="677.286,-845.5 667.286,-842 677.286,-838.5 677.286,-845.5"/>
</g>
<!-- PortConfiguration -->
<g id="node13" class="node"><title>PortConfiguration</title>
<polygon fill="#dddddd" stroke="none" points="123.286,-746 123.286,-766 264.286,-766 264.286,-746 123.286,-746"/>
<polygon fill="none" stroke="black" points="123.286,-746 123.286,-766 264.286,-766 264.286,-746 123.286,-746"/>
<text text-anchor="start" x="143.227" y="-751.8" font-family="Times,serif" font-size="14.00">PortConfiguration</text>
<polygon fill="none" stroke="black" points="123.286,-726 123.286,-746 264.286,-746 264.286,-726 123.286,-726"/>
<text text-anchor="start" x="126.235" y="-732.8" font-family="Times,serif" font-size="14.00">portConfigurationID:</text>
<text text-anchor="start" x="245.228" y="-732.8" font-family="Helvetica,sans-Serif" font-style="oblique" font-size="10.00">INT</text>
<polygon fill="none" stroke="black" points="123.286,-706 123.286,-726 264.286,-726 264.286,-706 123.286,-706"/>
<text text-anchor="start" x="125.862" y="-712.8" font-family="Times,serif" font-size="14.00">destinationDeviceID:</text>
<text text-anchor="start" x="245.601" y="-712.8" font-family="Helvetica,sans-Serif" font-style="oblique" font-size="10.00">INT</text>
<polygon fill="none" stroke="black" points="123.286,-686 123.286,-706 264.286,-706 264.286,-686 123.286,-686"/>
<text text-anchor="start" x="165.125" y="-692.8" font-family="Times,serif" font-size="14.00">portID:</text>
<text text-anchor="start" x="206.338" y="-692.8" font-family="Helvetica,sans-Serif" font-style="oblique" font-size="10.00">INT</text>
<polygon fill="none" stroke="black" points="123.286,-666 123.286,-686 264.286,-686 264.286,-666 123.286,-666"/>
<text text-anchor="start" x="138.311" y="-672.8" font-family="Times,serif" font-size="14.00">sourceDeviceID:</text>
<text text-anchor="start" x="233.152" y="-672.8" font-family="Helvetica,sans-Serif" font-style="oblique" font-size="10.00">INT</text>
</g>
<!-- PortConfiguration&#45;&gt;Devices -->
<g id="edge17" class="edge"><title>PortConfiguration:destinationDeviceID&#45;&gt;Devices:deviceid</title>
<path fill="none" stroke="#444444" stroke-dasharray="5,2" d="M265.286,-716C453.309,-716 484.701,-837.488 667.065,-841.878"/>
<polygon fill="#444444" stroke="#444444" points="677.244,-845.5 667.286,-841.881 677.327,-838.5 677.244,-845.5"/>
</g>
<!-- PortConfiguration&#45;&gt;Devices -->
<g id="edge19" class="edge"><title>PortConfiguration:sourceDeviceID&#45;&gt;Devices:deviceid</title>
<path fill="none" stroke="#444444" stroke-dasharray="5,2" d="M265.286,-676C459.231,-676 479.211,-836.215 667.04,-841.848"/>
<polygon fill="#444444" stroke="#444444" points="677.234,-845.5 667.287,-841.851 677.338,-838.5 677.234,-845.5"/>
</g>
<!-- Ports -->
<g id="node14" class="node"><title>Ports</title>
<polygon fill="#dddddd" stroke="none" points="685.286,-606 685.286,-626 782.286,-626 782.286,-606 685.286,-606"/>
<polygon fill="none" stroke="black" points="685.286,-606 685.286,-626 782.286,-626 782.286,-606 685.286,-606"/>
<text text-anchor="start" x="719.393" y="-611.8" font-family="Times,serif" font-size="14.00">Ports</text>
<polygon fill="none" stroke="black" points="685.286,-586 685.286,-606 782.286,-606 782.286,-586 685.286,-586"/>
<text text-anchor="start" x="705.125" y="-592.8" font-family="Times,serif" font-size="14.00">portID:</text>
<text text-anchor="start" x="746.338" y="-592.8" font-family="Helvetica,sans-Serif" font-style="oblique" font-size="10.00">INT</text>
<polygon fill="none" stroke="black" points="685.286,-566 685.286,-586 782.286,-586 782.286,-566 685.286,-566"/>
<text text-anchor="start" x="692.603" y="-572.8" font-family="Times,serif" font-size="14.00">name:</text>
<text text-anchor="start" x="726.81" y="-572.8" font-family="Helvetica,sans-Serif" font-style="oblique" font-size="10.00">VARCHAR</text>
<polygon fill="none" stroke="black" points="685.286,-546 685.286,-566 782.286,-566 782.286,-546 685.286,-546"/>
<text text-anchor="start" x="687.959" y="-552.8" font-family="Times,serif" font-size="14.00">description:</text>
<text text-anchor="start" x="754.056" y="-552.8" font-family="Helvetica,sans-Serif" font-style="oblique" font-size="10.00">TEXT</text>
</g>
<!-- PortConfiguration&#45;&gt;Ports -->
<g id="edge18" class="edge"><title>PortConfiguration:portID&#45;&gt;Ports:portid</title>
<path fill="none" stroke="#444444" stroke-dasharray="5,2" d="M265.286,-696C453.279,-696 491.478,-599.581 674.059,-596.097"/>
<polygon fill="#444444" stroke="#444444" points="684.319,-599.5 674.286,-596.095 684.253,-592.5 684.319,-599.5"/>
</g>
<!-- RoomConfiguration -->
<g id="node16" class="node"><title>RoomConfiguration</title>
<polygon fill="#dddddd" stroke="none" points="639.286,-84 639.286,-104 827.286,-104 827.286,-84 639.286,-84"/>
<polygon fill="none" stroke="black" points="639.286,-84 639.286,-104 827.286,-104 827.286,-84 639.286,-84"/>
<text text-anchor="start" x="677.282" y="-89.8" font-family="Times,serif" font-size="14.00">RoomConfiguration</text>
<polygon fill="none" stroke="black" points="639.286,-64 639.286,-84 827.286,-84 827.286,-64 639.286,-64"/>
<text text-anchor="start" x="662.235" y="-70.8" font-family="Times,serif" font-size="14.00">roomConfigurationID:</text>
<text text-anchor="start" x="788.228" y="-70.8" font-family="Helvetica,sans-Serif" font-style="oblique" font-size="10.00">INT</text>
<polygon fill="none" stroke="black" points="639.286,-44 639.286,-64 827.286,-64 827.286,-44 639.286,-44"/>
<text text-anchor="start" x="692.103" y="-50.8" font-family="Times,serif" font-size="14.00">name:</text>
<text text-anchor="start" x="726.31" y="-50.8" font-family="Helvetica,sans-Serif" font-style="oblique" font-size="10.00">VARCHAR</text>
<polygon fill="none" stroke="black" points="639.286,-24 639.286,-44 827.286,-44 827.286,-24 639.286,-24"/>
<text text-anchor="start" x="687.459" y="-30.8" font-family="Times,serif" font-size="14.00">description:</text>
<text text-anchor="start" x="753.556" y="-30.8" font-family="Helvetica,sans-Serif" font-style="oblique" font-size="10.00">TEXT</text>
<polygon fill="none" stroke="black" points="639.286,-4 639.286,-24 827.286,-24 827.286,-4 639.286,-4"/>
<text text-anchor="start" x="641.934" y="-10.8" font-family="Times,serif" font-size="14.00">roomConfigurationKey:</text>
<text text-anchor="start" x="776.479" y="-10.8" font-family="Helvetica,sans-Serif" font-style="oblique" font-size="10.00">VARCHAR</text>
</g>
<!-- RoomConfigurationMapping -->
<g id="node17" class="node"><title>RoomConfigurationMapping</title>
<polygon fill="#dddddd" stroke="none" points="94.2857,-167 94.2857,-187 292.286,-187 292.286,-167 94.2857,-167"/>
<polygon fill="none" stroke="black" points="94.2857,-167 94.2857,-187 292.286,-187 292.286,-167 94.2857,-167"/>
<text text-anchor="start" x="112.006" y="-172.8" font-family="Times,serif" font-size="14.00">RoomConfigurationMapping</text>
<polygon fill="none" stroke="black" points="94.2857,-147 94.2857,-167 292.286,-167 292.286,-147 94.2857,-147"/>
<text text-anchor="start" x="96.9591" y="-153.8" font-family="Times,serif" font-size="14.00">roomConfigurationMappingID:</text>
<text text-anchor="start" x="273.504" y="-153.8" font-family="Helvetica,sans-Serif" font-style="oblique" font-size="10.00">INT</text>
<polygon fill="none" stroke="black" points="94.2857,-127 94.2857,-147 292.286,-147 292.286,-127 94.2857,-127"/>
<text text-anchor="start" x="148.297" y="-133.8" font-family="Times,serif" font-size="14.00">commandID:</text>
<text text-anchor="start" x="222.166" y="-133.8" font-family="Helvetica,sans-Serif" font-style="oblique" font-size="10.00">INT</text>
<polygon fill="none" stroke="black" points="94.2857,-107 94.2857,-127 292.286,-127 292.286,-107 94.2857,-107"/>
<text text-anchor="start" x="122.235" y="-113.8" font-family="Times,serif" font-size="14.00">roomConfigurationID:</text>
<text text-anchor="start" x="248.228" y="-113.8" font-family="Helvetica,sans-Serif" font-style="oblique" font-size="10.00">INT</text>
<polygon fill="none" stroke="black" points="94.2857,-87 94.2857,-107 292.286,-107 292.286,-87 94.2857,-87"/>
<text text-anchor="start" x="113.22" y="-93.8" font-family="Times,serif" font-size="14.00">commandCodeKey:</text>
<text text-anchor="start" x="225.192" y="-93.8" font-family="Helvetica,sans-Serif" font-style="oblique" font-size="10.00">VARCHAR</text>
<polygon fill="none" stroke="black" points="94.2857,-67 94.2857,-87 292.286,-87 292.286,-67 94.2857,-67"/>
<text text-anchor="start" x="162.29" y="-73.8" font-family="Times,serif" font-size="14.00">priority:</text>
<text text-anchor="start" x="208.173" y="-73.8" font-family="Helvetica,sans-Serif" font-style="oblique" font-size="10.00">INT</text>
</g>
<!-- RoomConfigurationMapping&#45;&gt;Commands -->
<g id="edge20" class="edge"><title>RoomConfigurationMapping:commandID&#45;&gt;Commands:commandid</title>
<path fill="none" stroke="#444444" stroke-dasharray="5,2" d="M293.286,-137C482.908,-137 491.038,-319.414 674.279,-325.827"/>
<polygon fill="#444444" stroke="#444444" points="684.225,-329.499 674.287,-325.827 684.346,-322.501 684.225,-329.499"/>
</g>
<!-- RoomConfigurationMapping&#45;&gt;RoomConfiguration -->
<g id="edge21" class="edge"><title>RoomConfigurationMapping:roomConfigurationID&#45;&gt;RoomConfiguration:roomconfigurationid</title>
<path fill="none" stroke="#444444" stroke-dasharray="5,2" d="M293.286,-117C444.335,-117 482.091,-75.9099 628.05,-74.0641"/>
<polygon fill="#444444" stroke="#444444" points="638.308,-77.4999 628.286,-74.0627 638.264,-70.5001 638.308,-77.4999"/>
</g>
<!-- Rooms&#45;&gt;Buildings -->
<g id="edge22" class="edge"><title>Rooms:buildingID&#45;&gt;Buildings:buildingid</title>
<path fill="none" stroke="#444444" stroke-dasharray="5,2" d="M1312.29,-904C1446.89,-904 1472.9,-827.061 1601.98,-823.154"/>
<polygon fill="#444444" stroke="#444444" points="1612.34,-826.5 1602.29,-823.15 1612.23,-819.5 1612.34,-826.5"/>
</g>
<!-- Rooms&#45;&gt;Devices -->
<g id="edge23" class="edge"><title>Rooms:currentVideoOutputID&#45;&gt;Devices:deviceid</title>
<path fill="none" stroke="#444444" stroke-dasharray="5,2" d="M1156.29,-864C996.392,-864 954.474,-842.935 799.649,-842.03"/>
<polygon fill="#444444" stroke="#444444" points="789.296,-838.5 799.286,-842.029 789.276,-845.5 789.296,-838.5"/>
</g>
<!-- Rooms&#45;&gt;Devices -->
<g id="edge24" class="edge"><title>Rooms:currentVideoInputID&#45;&gt;Devices:deviceid</title>
<path fill="none" stroke="#444444" stroke-dasharray="5,2" d="M1156.29,-824C996.487,-824 954.385,-841.235 799.644,-841.975"/>
<polygon fill="#444444" stroke="#444444" points="789.277,-838.5 799.286,-841.976 789.294,-845.5 789.277,-838.5"/>
</g>
<!-- Rooms&#45;&gt;Devices -->
<g id="edge25" class="edge"><title>Rooms:currentAudioOutputID&#45;&gt;Devices:deviceid</title>
<path fill="none" stroke="#444444" stroke-dasharray="5,2" d="M1156.29,-844C996.677,-844 954.208,-842.085 799.632,-842.003"/>
<polygon fill="#444444" stroke="#444444" points="789.287,-838.5 799.286,-842.003 789.285,-845.5 789.287,-838.5"/>
</g>
<!-- Rooms&#45;&gt;Devices -->
<g id="edge26" class="edge"><title>Rooms:currentAudioInputID&#45;&gt;Devices:deviceid</title>
<path fill="none" stroke="#444444" stroke-dasharray="5,2" d="M1156.29,-804C995.826,-804 955.004,-840.385 799.684,-841.948"/>
<polygon fill="#444444" stroke="#444444" points="789.268,-838.5 799.286,-841.95 789.303,-845.5 789.268,-838.5"/>
</g>
<!-- vConfigurationMapping -->
<g id="node19" class="node"><title>vConfigurationMapping</title>
<polygon fill="#ddddff" stroke="none" points="123.286,-1174 123.286,-1194 264.286,-1194 264.286,-1174 123.286,-1174"/>
<polygon fill="none" stroke="black" points="123.286,-1174 123.286,-1194 264.286,-1194 264.286,-1174 123.286,-1174"/>
<text text-anchor="start" x="126.12" y="-1179.8" font-family="Times,serif" font-size="14.00">vConfigurationMapping</text>
</g>
<!-- AddConfigurationMapping -->
<g id="node20" class="node"><title>AddConfigurationMapping</title>
<polygon fill="#dddddd" stroke="none" points="114.286,-1228 114.286,-1248 273.286,-1248 273.286,-1228 114.286,-1228"/>
<polygon fill="none" stroke="black" points="114.286,-1228 114.286,-1248 273.286,-1248 273.286,-1228 114.286,-1228"/>
<text text-anchor="start" x="117.565" y="-1233.8" font-family="Times,serif" font-size="14.00">AddConfigurationMapping</text>
</g>
</g>
</svg>
